<?xml version="1.0" encoding="UTF-8" standalone="no"?>
<svg width="40px" height="46px" viewBox="0 0 40 46" version="1.1" xmlns="http://www.w3.org/2000/svg" xmlns:xlink="http://www.w3.org/1999/xlink" xmlns:sketch="http://www.bohemiancoding.com/sketch/ns">
    <!-- Generator: Sketch 3.5.1 (25234) - http://www.bohemiancoding.com/sketch -->
    <title>linux</title>
    <desc>Created with Sketch.</desc>
    <defs>
        <filter x="-50%" y="-50%" width="200%" height="200%" filterUnits="objectBoundingBox" id="filter-1">
            <feMorphology radius="1" in="SourceAlpha" operator="dilate" result="shadowSpreadOuter1"></feMorphology>
            <feOffset dx="0" dy="2" in="shadowSpreadOuter1" result="shadowOffsetOuter1"></feOffset>
            <feGaussianBlur stdDeviation="1" in="shadowOffsetOuter1" result="shadowBlurOuter1"></feGaussianBlur>
            <feColorMatrix values="0 0 0 0 0   0 0 0 0 0   0 0 0 0 0  0 0 0 0.7 0" in="shadowBlurOuter1" type="matrix" result="shadowMatrixOuter1"></feColorMatrix>
            <feOffset dx="0" dy="-1" in="SourceAlpha" result="shadowOffsetInner1"></feOffset>
            <feGaussianBlur stdDeviation="1" in="shadowOffsetInner1" result="shadowBlurInner1"></feGaussianBlur>
            <feComposite in="shadowBlurInner1" in2="SourceAlpha" operator="arithmetic" k2="-1" k3="1" result="shadowInnerInner1"></feComposite>
            <feColorMatrix values="0 0 0 0 1   0 0 0 0 1   0 0 0 0 1  0 0 0 0.7 0" in="shadowInnerInner1" type="matrix" result="shadowMatrixInner1"></feColorMatrix>
            <feMerge>
                <feMergeNode in="shadowMatrixOuter1"></feMergeNode>
                <feMergeNode in="SourceGraphic"></feMergeNode>
                <feMergeNode in="shadowMatrixInner1"></feMergeNode>
            </feMerge>
        </filter>
    </defs>
    <g id="Page-2" stroke="none" stroke-width="1" fill="none" fill-rule="evenodd" sketch:type="MSPage">
        <g id="linux" sketch:type="MSLayerGroup" transform="translate(3.000000, 1.000000)" filter="url(#filter-1)" fill="#7592A0">
            <path d="M32.44875,33.7157895 C31.8665,34.2421053 28.645,35.5263158 27.682375,36.5284211 C26.72825,37.5242105 25.4745,38.3389474 24.711625,38.0989474 C23.94025,37.8610526 23.266625,36.8168421 23.598125,35.2884211 C23.94025,33.7663158 24.22925,32.0968421 24.180375,31.1431579 C24.129375,30.1894737 23.94025,28.9052632 24.180375,28.7157895 C24.4205,28.5284211 24.803,28.6189474 24.803,28.6189474 C24.803,28.6189474 24.61175,30.4273684 25.71675,30.9031579 C26.819625,31.3810526 28.404875,30.7157895 28.88725,30.2378947 C29.3675,29.7621053 29.7075,29.0547368 29.7075,29.0547368 C29.7075,29.0547368 30.189875,29.2926316 30.141,30.0484211 C30.09,30.8147368 30.4725,31.9073684 31.195,32.2863158 C31.9175,32.6631579 33.020375,33.1894737 32.44875,33.7157895 M22.952125,27.9347368 C22.769375,28.7978947 22.769375,31.9242105 22.769375,31.9242105 C22.769375,31.9242105 20.8505,34.5557895 17.87975,34.9915789 C14.909,35.4189474 13.4215,35.1073684 13.4215,35.1073684 L11.753375,33.2147368 C11.753375,33.2147368 13.049625,33.0252632 12.866875,31.7347368 C12.684125,30.4526316 8.905875,28.6757895 8.225875,27.08 C7.545875,25.4842105 8.1005,22.7873684 8.973875,21.4378947 C9.836625,20.0905263 10.393375,17.1452632 11.256125,16.1663158 C12.127375,15.1894737 12.798875,13.1073684 12.492875,12.1873684 C12.492875,12.1873684 14.35225,14.3915789 15.646375,14.0294737 C16.942625,13.6589474 19.856,11.5136842 20.287375,11.8821053 C20.71875,12.2526316 24.429,20.3368421 24.803,22.9115789 C25.177,25.4842105 24.554375,27.4505263 24.554375,27.4505263 C24.554375,27.4505263 23.134875,27.08 22.952125,27.9347368 M12.002,36.48 C11.812875,37.36 10.76525,38.0021053 10.76525,38.0021053 C9.828125,38.2884211 7.214375,37.1705263 6.0265,36.6778947 C4.838625,36.1831579 1.816875,36.0357895 1.428,35.6 C1.0285,35.1557895 1.61925,34.1768421 1.7765,33.2484211 C1.91675,32.3094737 1.476875,31.7263158 1.62775,31.0926316 C1.7765,30.4610526 3.70175,30.4610526 4.44125,30.0168421 C5.18075,29.5726316 5.3295,28.2968421 5.926625,27.96 C6.51525,27.6147368 7.60325,28.84 8.051625,29.5305263 C8.4915,30.2042105 10.176625,33.1494737 10.865125,33.8821053 C11.562125,34.6210526 12.20175,35.6 12.002,36.48 M13.63825,5.50947368 C14.4755,5.50947368 15.157625,6.49684211 15.157625,7.71368421 C15.157625,7.93473684 15.132125,8.14105263 15.09175,8.34736842 C14.8835,8.41263158 14.67525,8.52 14.4755,8.69263158 C14.37775,8.77473684 14.286375,8.84842105 14.2035,8.93052632 C14.33525,8.68421053 14.38625,8.33052632 14.32675,7.96 C14.212,7.30315789 13.763625,6.81684211 13.32375,6.88210526 C12.88175,6.95578947 12.61825,7.55789474 12.7245,8.22315789 C12.841375,8.89684211 13.28125,9.38315789 13.729625,9.30947368 C13.755125,9.30105263 13.7785,9.29263158 13.804,9.28421053 C13.589375,9.49052632 13.389625,9.67157895 13.181375,9.81894737 C12.57575,9.53894737 12.127375,8.70105263 12.127375,7.71368421 C12.127375,6.48842105 12.798875,5.50947368 13.63825,5.50947368 M18.4195,10.0484211 C18.95075,10.2294737 19.539375,10.5663158 19.482,10.9031579 C19.416125,11.2505263 19.142,11.2505263 18.4195,11.6863158 C17.7055,12.1136842 16.14575,13.0673684 15.646375,13.1326316 C15.149125,13.1978947 14.8665,12.92 14.33525,12.5810526 C13.804,12.2357895 12.807375,11.4294737 13.058125,11.0021053 C13.058125,11.0021053 13.838,10.4105263 14.178,10.1073684 C14.518,9.79368421 15.39775,9.05473684 15.929,9.15157895 C16.45175,9.24210526 17.88825,9.85894737 18.4195,10.0484211 M18.55975,5.13894737 C19.62225,5.13894737 20.478625,6.18315789 20.478625,7.46736842 C20.478625,8.37894737 20.04725,9.16842105 19.416125,9.54736842 C19.25675,9.48210526 19.091,9.40842105 18.90825,9.33263158 C19.29075,9.14526316 19.556375,8.66736842 19.556375,8.11578947 C19.556375,7.39368421 19.108,6.8 18.544875,6.8 C17.996625,6.8 17.53975,7.39368421 17.53975,8.11578947 C17.53975,8.37894737 17.605625,8.64210526 17.714,8.84842105 C17.3825,8.71578947 17.082875,8.60210526 16.84275,8.51157895 C16.717375,8.19789474 16.643,7.84421053 16.643,7.46736842 C16.643,6.18315789 17.49725,5.13894737 18.55975,5.13894737 M33.037375,32.1705263 C31.983375,31.7431579 31.120625,31.0694737 31.1865,29.7768421 C31.243875,28.4947368 30.25575,27.64 30.25575,27.64 C30.25575,27.64 31.120625,24.8189474 30.31525,22.4821053 C29.509875,20.1557895 26.853625,16.4147368 24.8115,13.6021053 C22.769375,10.7810526 24.503375,7.52421053 22.644,3.36210526 C20.784625,-0.806315789 15.963,-0.56 13.364125,1.21684211 C10.76525,2.99368421 11.562125,7.4 11.6875,9.49052632 C11.812875,11.5705263 11.744875,13.0589474 11.50475,13.5936842 C11.264625,14.1368421 9.588,16.1094737 8.4745,17.7621053 C7.363125,19.4231579 6.55775,22.8526316 5.743875,24.2673684 C4.947,25.6736842 5.50375,26.9557895 5.50375,26.9557895 C5.50375,26.9557895 4.947,27.1452632 4.507125,28.0673684 C4.07575,28.9789474 3.213,29.4147368 1.659625,29.7115789 C0.116875,30.0252632 0.116875,31.0105263 0.48875,32.1136842 C0.86275,33.2147368 0.48875,33.8315789 0.057375,35.2378947 C-0.374,36.6442105 1.785,37.0715789 3.893,37.3178947 C5.9925,37.5663158 8.35125,38.9136842 10.325375,39.1515789 C12.310125,39.4 12.92425,37.8126316 12.92425,37.8126316 C12.92425,37.8126316 15.157625,37.3178947 17.50575,37.2610526 C19.856,37.1957895 22.080875,37.7452632 22.080875,37.7452632 C22.080875,37.7452632 22.51225,38.7242105 23.317625,39.1515789 C24.123,39.5873684 25.857,39.6463158 26.968375,38.4863158 C28.081875,37.3178947 31.052625,35.8463158 32.72075,34.9263158 C34.3995,34.0042105 34.091375,32.5978947 33.037375,32.1705263" id="Fill-1" sketch:type="MSShapeGroup"></path>
        </g>
    </g>
</svg>