<svg id="Layer_1" data-name="Layer 1" xmlns="http://www.w3.org/2000/svg" viewBox="0 0 28 28"><defs><style>.cls-1{fill:#e1bb34;}</style></defs><title>summary_selected</title><path class="cls-1" d="M875.32,586.32a0.53,0.53,0,0,0,0-.44,2.27,2.27,0,0,1-.28-1.12,2.53,2.53,0,0,1,5.06-.19,2.44,2.44,0,0,1-.33,1.38,0.51,0.51,0,0,0,0,.43l3,4.83a0.4,0.4,0,0,0,.19.17h0.42a0.4,0.4,0,0,0,.2-0.18l5.5-8.94a0.53,0.53,0,0,0,0-.44,2.27,2.27,0,0,1-.28-1.12,2.54,2.54,0,0,1,.81-1.85,2.51,2.51,0,0,1,1.91-.67,2.54,2.54,0,0,1,2.35,2.33,2.44,2.44,0,0,1-.33,1.38,0.51,0.51,0,0,0,0,.43l5.78,9.4a14,14,0,1,0-27.05-.31Z" transform="translate(-871.79 -574)"/><path class="cls-1" d="M898.17,594l-6.51-10.58a0.5,0.5,0,0,0-.2-0.19H891a2,2,0,0,1-.14.17l-5.48,8.91a0.49,0.49,0,0,0,0,.42,2.32,2.32,0,0,1,.33,1.2,2.54,2.54,0,0,1-.81,1.85,2.51,2.51,0,0,1-1.73.68H883a2.53,2.53,0,0,1-2.35-2.4,2.35,2.35,0,0,1,.28-1.25,0.54,0.54,0,0,0,0-.45l-3-4.87a0.5,0.5,0,0,0-.19-0.19h-0.48a0.91,0.91,0,0,1-.13.17l-4,6.53a14,14,0,0,0,25.2.19A1,1,0,0,1,898.17,594Z" transform="translate(-871.79 -574)"/></svg>